<?xml version="1.0" encoding="UTF-8" standalone="no"?>
<svg
   viewBox="0 0 504.75 541"
   version="1.1"
   id="svg22"
   sodipodi:docname="haveno.svg"
   width="504.75"
   height="541"
   inkscape:version="1.1.2 (0a00cf5339, 2022-02-04)"
   xmlns:inkscape="http://www.inkscape.org/namespaces/inkscape"
   xmlns:sodipodi="http://sodipodi.sourceforge.net/DTD/sodipodi-0.dtd"
   xmlns="http://www.w3.org/2000/svg"
   xmlns:svg="http://www.w3.org/2000/svg">
  <sodipodi:namedview
     id="namedview24"
     pagecolor="#ffffff"
     bordercolor="#666666"
     borderopacity="1.0"
     inkscape:pageshadow="2"
     inkscape:pageopacity="0.0"
     inkscape:pagecheckerboard="0"
     showgrid="false"
     inkscape:zoom="0.8275"
     inkscape:cx="250.15106"
     inkscape:cy="274.32024"
     inkscape:window-width="1384"
     inkscape:window-height="855"
     inkscape:window-x="0"
     inkscape:window-y="0"
     inkscape:window-maximized="0"
     inkscape:current-layer="svg22" />
  <defs
     id="defs4">
    <style
       id="style2">.cls-1{fill:#f1482d;}.cls-2,.cls-3{fill:#232075;}.cls-2{opacity:0.22;}.cls-3{opacity:0.44;}.cls-4{fill:#fff;}</style>
  </defs>
  <title
     id="title6">haveno_logo_icon</title>
  <g
     id="Layer_1_copy"
     data-name="Layer 1 copy"
     transform="translate(-149.37,-125.08)">
    <polygon
       class="cls-1"
       points="511.62,177.19 557.71,207.42 563.75,212.71 576.6,268.62 585.67,276.94 590.96,270.13 638.25,296.94 654.12,312.05 646.12,375.92 630.25,376.68 630.25,386.5 646.12,432.59 584.91,556.51 581.89,568.6 547.89,591.27 504.06,616.96 468.37,618.08 434.54,647.19 358.23,666.08 349.92,639.63 318.18,632.08 170.08,518.73 188.97,501.35 167.06,486.24 149.37,331.08 232.04,173.41 268.31,162.84 275.11,168.13 290.98,168.88 303.07,158.3 329.37,138.08 379.37,125.08 395.37,160.08 422.37,186.08 469.37,155.08 499.53,162.84 "
       id="polygon8" />
    <path
       class="cls-2"
       d="m 510.93,216.49 c 24.31,7.8 36.09,30 57.63,72 23.3,45.44 35,68.16 26.9,88 -9.52,23.41 -38.88,31.5 -35.86,48 1.51,8.27 9.51,9.62 11.52,20 2.61,13.4 -7.81,26.12 -11.52,30.66 -28.3,34.58 -68,16.05 -103.74,49.32 -12.79,11.91 -6.63,13.27 -32,44 -22.74,27.53 -34.11,41.29 -48.66,44 -28.25,5.24 -58.53,-24.33 -73,-49.32 -18.74,-32.38 -4,-45.06 -21.77,-78.65 -20.61,-38.91 -46.78,-33.88 -61.47,-70.64 -10.55,-26.37 -6,-51.37 -2.57,-70.65 3.21,-17.82 13.66,-75.79 52.51,-94.64 37.83,-18.37 56.84,22.57 110.14,8 33,-9 41.66,-29.07 89.65,-38.65 17.9,-3.67 28.86,-5.72 42.24,-1.43 z"
       id="path10" />
    <path
       class="cls-3"
       d="m 413.19,283 c -32.8,0.14 -104,0.43 -140.55,35.6 -2.81,2.7 -31,30.48 -16.53,49.39 14,18.27 53.54,9.53 71.1,28.71 14.09,15.39 -6,26.91 -1.65,58.57 3.33,24.47 21.26,61.11 56.22,66.61 25.76,4.06 50.3,-10.45 57.87,-14.93 37.64,-22.26 41.7,-57.59 43,-71.2 4.72,-49.9 -31.83,-68.23 -11.57,-99.92 12.89,-20.17 35.64,-25.19 31.41,-35.61 -7.14,-17.58 -77.6,-17.28 -89.3,-17.22 z"
       id="path12" />
    <path
       class="cls-3"
       d="m 342.76,336.08 c 6.17,-12.18 41.43,-22.94 66.07,-14 14.5,5.26 22.66,16.39 20.94,26 -2,11 -4.24,13.62 -9.77,24.92 -7.46,15.25 13.11,19 15,40 1.67,18.59 -23.39,40.09 -32.62,40.08 -60.38,-0.08 0.71,-46.44 -45.12,-92 -8.54,-8.5 -18.79,-16.56 -14.5,-25 z"
       id="path14" />
  </g>
  <g
     id="Layer_4"
     data-name="Layer 4"
     transform="translate(-149.37,-125.08)">
    <path
       class="cls-4"
       d="m 354.58,380.91 h 94.33 v -97 h 65.33 v 251.32 h -65.33 v -103 h -94.33 v 103 H 289.26 V 283.92 h 65.32 z"
       id="path17" />
    <circle
       class="cls-4"
       cx="402"
       cy="229"
       r="33"
       id="circle19" />
  </g>
</svg>
